<!-- Generator: Adobe Illustrator 24.0.2, SVG Export Plug-In . SVG Version: 6.00 Build 0)  -->
<svg version="1.1" id="Layer_1" xmlns="http://www.w3.org/2000/svg" xmlns:xlink="http://www.w3.org/1999/xlink" x="0px" y="0px"
	 viewBox="0 0 29 28.3" style="enable-background:new 0 0 29 28.3;" xml:space="preserve">
<style type="text/css">
	.st0{fill:#706E6E;}
</style>
<g id="grid-2">
	<path class="st0" d="M8.7,2.4c0-0.5-0.4-1-1-1H2.4c-0.5,0-1,0.4-1,1v5.3c0,0.5,0.4,1,1,1h5.3c0.5,0,1-0.4,1-1V2.4z"/>
	<path class="st0" d="M17.9,2.4c0-0.5-0.4-1-1-1h-5.3c-0.5,0-1,0.4-1,1v5.3c0,0.5,0.4,1,1,1H17c0.5,0,1-0.4,1-1V2.4z"/>
	<path class="st0" d="M27.4,2.4c0-0.5-0.4-1-1-1H21c-0.5,0-1,0.4-1,1v5.3c0,0.5,0.4,1,1,1h5.3c0.5,0,1-0.4,1-1
		C27.4,7.7,27.4,2.4,27.4,2.4z"/>
	<path class="st0" d="M8.7,11.4c0-0.5-0.4-1-1-1H2.4c-0.5,0-1,0.4-1,1v5.3c0,0.5,0.4,1,1,1h5.3c0.5,0,1-0.4,1-1V11.4z"/>
	<path class="st0" d="M17.9,11.4c0-0.5-0.4-1-1-1h-5.3c-0.5,0-1,0.4-1,1v5.3c0,0.5,0.4,1,1,1H17c0.5,0,1-0.4,1-1V11.4z"/>
	<path class="st0" d="M27.4,11.4c0-0.5-0.4-1-1-1H21c-0.5,0-1,0.4-1,1v5.3c0,0.5,0.4,1,1,1h5.3c0.5,0,1-0.4,1-1
		C27.4,16.7,27.4,11.4,27.4,11.4z"/>
	<path class="st0" d="M8.7,20.6c0-0.5-0.4-1-1-1H2.4c-0.5,0-1,0.4-1,1v5.3c0,0.5,0.4,1,1,1h5.3c0.5,0,1-0.4,1-1V20.6z"/>
	<path class="st0" d="M17.9,20.6c0-0.5-0.4-1-1-1h-5.3c-0.5,0-1,0.4-1,1v5.3c0,0.5,0.4,1,1,1H17c0.5,0,1-0.4,1-1V20.6z"/>
	<path class="st0" d="M27.4,20.6c0-0.5-0.4-1-1-1H21c-0.5,0-1,0.4-1,1v5.3c0,0.5,0.4,1,1,1h5.3c0.5,0,1-0.4,1-1
		C27.4,25.9,27.4,20.6,27.4,20.6z"/>
</g>
</svg>
