<?xml version="1.0" encoding="utf-8"?>
<!-- Generator: Adobe Illustrator 24.0.2, SVG Export Plug-In . SVG Version: 6.00 Build 0)  -->
<svg version="1.1" id="Layer_1" xmlns="http://www.w3.org/2000/svg" xmlns:xlink="http://www.w3.org/1999/xlink" x="0px" y="0px"
	 viewBox="0 0 28.8 23.1" style="enable-background:new 0 0 28.8 23.1;" xml:space="preserve">
<style type="text/css">
	.st0{fill:#706E6E;}
</style>
<g>
	<path class="st0" d="M27.5,5c0,0.8-0.9,1.4-2,1.4H3.6c-1.1,0-2-0.6-2-1.4V2.8c0-0.8,0.9-1.4,2-1.4h21.9c1.1,0,2,0.6,2,1.4V5z"/>
	<path class="st0" d="M27.5,20.5c0,0.8-0.9,1.4-2,1.4H3.6c-1.1,0-2-0.6-2-1.4v-2.3c0-0.8,0.9-1.4,2-1.4h21.9c1.1,0,2,0.6,2,1.4V20.5
		z"/>
	<path class="st0" d="M27.5,12.7c0,0.8-0.9,1.4-2,1.4H3.6c-1.1,0-2-0.6-2-1.4v-2.3c0-0.8,0.9-1.4,2-1.4h21.9c1.1,0,2,0.6,2,1.4V12.7
		z"/>
</g>
</svg>
